# xmcd
#
# Track frame offsets: 
#        150
#        12564
#        23572
#        34838
#        48127
#        59614
#        69464
#        81485
#        99578
#        111426
#        126087
#        139636
#
# Disc length: 2059 seconds
#
# Revision: 0
# Processed by: cddbd v1.5.2PL0 Copyright (c) Steve Scherf et al.
# Submitted via: ExactAudioCopy v1.1
#
DISCID=a408090c
DTITLE=Don Bryant - Precious Soul
DYEAR=1969
DGENRE=Soul
TTITLE0=She's Looking Good
TTITLE1=(You're A) Wonderful One
TTITLE2=Funky Broadway
TTITLE3=Can I Change My Mind
TTITLE4=Soul Man
TTITLE5=Land Of 1000 Dances
TTITLE6=Slip Away
TTITLE7=For Your Precious Love
TTITLE8=Expressway To Your Heart
TTITLE9=Try Me
TTITLE10=When Something Is Wrong With My Baby
TTITLE11=Cry Baby
EXTD=
EXTT0=
EXTT1=
EXTT2=
EXTT3=
EXTT4=
EXTT5=
EXTT6=
EXTT7=
EXTT8=
EXTT9=
EXTT10=
EXTT11=
PLAYORDER=
